<svg xmlns="http://www.w3.org/2000/svg"><defs><symbol id="tabler-adjustments" viewBox="0 0 24 24" fill="none" stroke="currentColor" stroke-linecap="round" stroke-linejoin="round"><path stroke="none" d="M0 0h24v24H0z" fill="none"/><path d="M4 10a2 2 0 1 0 4 0a2 2 0 0 0 -4 0" /><path d="M6 4v4" /><path d="M6 12v8" /><path d="M10 16a2 2 0 1 0 4 0a2 2 0 0 0 -4 0" /><path d="M12 4v10" /><path d="M12 18v2" /><path d="M16 7a2 2 0 1 0 4 0a2 2 0 0 0 -4 0" /><path d="M18 4v1" /><path d="M18 9v11" /></symbol><symbol id="tabler-adjustments-horizontal" viewBox="0 0 24 24" fill="none" stroke="currentColor" stroke-linecap="round" stroke-linejoin="round"><path stroke="none" d="M0 0h24v24H0z" fill="none"/><path d="M14 6m-2 0a2 2 0 1 0 4 0a2 2 0 1 0 -4 0" /><path d="M4 6l8 0" /><path d="M16 6l4 0" /><path d="M8 12m-2 0a2 2 0 1 0 4 0a2 2 0 1 0 -4 0" /><path d="M4 12l2 0" /><path d="M10 12l10 0" /><path d="M17 18m-2 0a2 2 0 1 0 4 0a2 2 0 1 0 -4 0" /><path d="M4 18l11 0" /><path d="M19 18l1 0" /></symbol><symbol id="tabler-alert-circle" viewBox="0 0 24 24" fill="none" stroke="currentColor" stroke-linecap="round" stroke-linejoin="round"><path stroke="none" d="M0 0h24v24H0z" fill="none"/><path d="M3 12a9 9 0 1 0 18 0a9 9 0 0 0 -18 0" /><path d="M12 8v4" /><path d="M12 16h.01" /></symbol><symbol id="tabler-alert-triangle" viewBox="0 0 24 24" fill="none" stroke="currentColor" stroke-linecap="round" stroke-linejoin="round"><path stroke="none" d="M0 0h24v24H0z" fill="none"/><path d="M12 9v4" /><path d="M10.363 3.591l-8.106 13.534a1.914 1.914 0 0 0 1.636 2.871h16.214a1.914 1.914 0 0 0 1.636 -2.87l-8.106 -13.536a1.914 1.914 0 0 0 -3.274 0z" /><path d="M12 16h.01" /></symbol><symbol id="tabler-apple" viewBox="0 0 24 24" fill="none" stroke="currentColor" stroke-linecap="round" stroke-linejoin="round"><path stroke="none" d="M0 0h24v24H0z" fill="none"/><path d="M12 14m-7 0a7 7 0 1 0 14 0a7 7 0 1 0 -14 0" /><path d="M12 11v-6a2 2 0 0 1 2 -2h2v1a2 2 0 0 1 -2 2h-2" /><path d="M10 10.5c1.333 .667 2.667 .667 4 0" /></symbol><symbol id="tabler-archive" viewBox="0 0 24 24" fill="none" stroke="currentColor" stroke-linecap="round" stroke-linejoin="round"><path stroke="none" d="M0 0h24v24H0z" fill="none"/><path d="M3 4m0 2a2 2 0 0 1 2 -2h14a2 2 0 0 1 2 2v0a2 2 0 0 1 -2 2h-14a2 2 0 0 1 -2 -2z" /><path d="M5 8v10a2 2 0 0 0 2 2h10a2 2 0 0 0 2 -2v-10" /><path d="M10 12l4 0" /></symbol><symbol id="tabler-arrow-down-circle" viewBox="0 0 24 24" fill="none" stroke="currentColor" stroke-linecap="round" stroke-linejoin="round"><path stroke="none" d="M0 0h24v24H0z" fill="none"/><path d="M12 7v14" /><path d="M9 18l3 3l3 -3" /><path d="M12 7a2 2 0 1 0 0 -4a2 2 0 0 0 0 4" /></symbol><symbol id="tabler-arrow-left" viewBox="0 0 24 24" fill="none" stroke="currentColor" stroke-linecap="round" stroke-linejoin="round"><path stroke="none" d="M0 0h24v24H0z" fill="none"/><path d="M5 12l14 0" /><path d="M5 12l6 6" /><path d="M5 12l6 -6" /></symbol><symbol id="tabler-arrow-right" viewBox="0 0 24 24" fill="none" stroke="currentColor" stroke-linecap="round" stroke-linejoin="round"><path stroke="none" d="M0 0h24v24H0z" fill="none"/><path d="M5 12l14 0" /><path d="M13 18l6 -6" /><path d="M13 6l6 6" /></symbol><symbol id="tabler-ban" viewBox="0 0 24 24" fill="none" stroke="currentColor" stroke-linecap="round" stroke-linejoin="round"><path stroke="none" d="M0 0h24v24H0z" fill="none"/><path d="M12 12m-9 0a9 9 0 1 0 18 0a9 9 0 1 0 -18 0" /><path d="M5.7 5.7l12.6 12.6" /></symbol><symbol id="tabler-bell" viewBox="0 0 24 24" fill="none" stroke="currentColor" stroke-linecap="round" stroke-linejoin="round"><path stroke="none" d="M0 0h24v24H0z" fill="none"/><path d="M10 5a2 2 0 1 1 4 0a7 7 0 0 1 4 6v3a4 4 0 0 0 2 3h-16a4 4 0 0 0 2 -3v-3a7 7 0 0 1 4 -6" /><path d="M9 17v1a3 3 0 0 0 6 0v-1" /></symbol><symbol id="tabler-bell-off" viewBox="0 0 24 24" fill="none" stroke="currentColor" stroke-linecap="round" stroke-linejoin="round"><path stroke="none" d="M0 0h24v24H0z" fill="none"/><path d="M9.346 5.353c.21 -.129 .428 -.246 .654 -.353a2 2 0 1 1 4 0a7 7 0 0 1 4 6v3m-1 3h-13a4 4 0 0 0 2 -3v-3a6.996 6.996 0 0 1 1.273 -3.707" /><path d="M9 17v1a3 3 0 0 0 6 0v-1" /><path d="M3 3l18 18" /></symbol><symbol id="tabler-brain" viewBox="0 0 24 24" fill="none" stroke="currentColor" stroke-linecap="round" stroke-linejoin="round"><path stroke="none" d="M0 0h24v24H0z" fill="none"/><path d="M15.5 13a3.5 3.5 0 0 0 -3.5 3.5v1a3.5 3.5 0 0 0 7 0v-1.8" /><path d="M8.5 13a3.5 3.5 0 0 1 3.5 3.5v1a3.5 3.5 0 0 1 -7 0v-1.8" /><path d="M17.5 16a3.5 3.5 0 0 0 0 -7h-.5" /><path d="M19 9.3v-2.8a3.5 3.5 0 0 0 -7 0" /><path d="M6.5 16a3.5 3.5 0 0 1 0 -7h.5" /><path d="M5 9.3v-2.8a3.5 3.5 0 0 1 7 0v10" /></symbol><symbol id="tabler-brand-apple" viewBox="0 0 24 24" fill="none" stroke="currentColor" stroke-linecap="round" stroke-linejoin="round"><path stroke="none" d="M0 0h24v24H0z" fill="none"/><path d="M8.286 7.008c-3.216 0 -4.286 3.23 -4.286 5.92c0 3.229 2.143 8.072 4.286 8.072c1.165 -.05 1.799 -.538 3.214 -.538c1.406 0 1.607 .538 3.214 .538s4.286 -3.229 4.286 -5.381c-.03 -.011 -2.649 -.434 -2.679 -3.23c-.02 -2.335 2.589 -3.179 2.679 -3.228c-1.096 -1.606 -3.162 -2.113 -3.75 -2.153c-1.535 -.12 -3.032 1.077 -3.75 1.077c-.729 0 -2.036 -1.077 -3.214 -1.077z" /><path d="M12 4a2 2 0 0 0 2 -2a2 2 0 0 0 -2 2" /></symbol><symbol id="tabler-brand-google-play" viewBox="0 0 24 24" fill="none" stroke="currentColor" stroke-linecap="round" stroke-linejoin="round"><path stroke="none" d="M0 0h24v24H0z" fill="none"/><path d="M4 3.71v16.58a.7 .7 0 0 0 1.05 .606l14.622 -8.42a.55 .55 0 0 0 0 -.953l-14.622 -8.419a.7 .7 0 0 0 -1.05 .607z" /><path d="M15 9l-10.5 11.5" /><path d="M4.5 3.5l10.5 11.5" /></symbol><symbol id="tabler-brand-windows" viewBox="0 0 24 24" fill="none" stroke="currentColor" stroke-linecap="round" stroke-linejoin="round"><path stroke="none" d="M0 0h24v24H0z" fill="none"/><path d="M17.8 20l-12 -1.5c-1 -.1 -1.8 -.9 -1.8 -1.9v-9.2c0 -1 .8 -1.8 1.8 -1.9l12 -1.5c1.2 -.1 2.2 .8 2.2 1.9v12.1c0 1.2 -1.1 2.1 -2.2 1.9z" /><path d="M12 5l0 14" /><path d="M4 12l16 0" /></symbol><symbol id="tabler-building" viewBox="0 0 24 24" fill="none" stroke="currentColor" stroke-linecap="round" stroke-linejoin="round"><path stroke="none" d="M0 0h24v24H0z" fill="none"/><path d="M3 21l18 0" /><path d="M9 8l1 0" /><path d="M9 12l1 0" /><path d="M9 16l1 0" /><path d="M14 8l1 0" /><path d="M14 12l1 0" /><path d="M14 16l1 0" /><path d="M5 21v-16a2 2 0 0 1 2 -2h10a2 2 0 0 1 2 2v16" /></symbol><symbol id="tabler-bulb" viewBox="0 0 24 24" fill="none" stroke="currentColor" stroke-linecap="round" stroke-linejoin="round"><path stroke="none" d="M0 0h24v24H0z" fill="none"/><path d="M3 12h1m8 -9v1m8 8h1m-15.4 -6.4l.7 .7m12.1 -.7l-.7 .7" /><path d="M9 16a5 5 0 1 1 6 0a3.5 3.5 0 0 0 -1 3a2 2 0 0 1 -4 0a3.5 3.5 0 0 0 -1 -3" /><path d="M9.7 17l4.6 0" /></symbol><symbol id="tabler-chart-bar" viewBox="0 0 24 24" fill="none" stroke="currentColor" stroke-linecap="round" stroke-linejoin="round"><path stroke="none" d="M0 0h24v24H0z" fill="none"/><path d="M3 12m0 1a1 1 0 0 1 1 -1h4a1 1 0 0 1 1 1v6a1 1 0 0 1 -1 1h-4a1 1 0 0 1 -1 -1z" /><path d="M9 8m0 1a1 1 0 0 1 1 -1h4a1 1 0 0 1 1 1v10a1 1 0 0 1 -1 1h-4a1 1 0 0 1 -1 -1z" /><path d="M15 4m0 1a1 1 0 0 1 1 -1h4a1 1 0 0 1 1 1v14a1 1 0 0 1 -1 1h-4a1 1 0 0 1 -1 -1z" /><path d="M4 20l14 0" /></symbol><symbol id="tabler-check" viewBox="0 0 24 24" fill="none" stroke="currentColor" stroke-linecap="round" stroke-linejoin="round"><path stroke="none" d="M0 0h24v24H0z" fill="none"/><path d="M5 12l5 5l10 -10" /></symbol><symbol id="tabler-checklist" viewBox="0 0 24 24" fill="none" stroke="currentColor" stroke-linecap="round" stroke-linejoin="round"><path stroke="none" d="M0 0h24v24H0z" fill="none"/><path d="M9.615 20h-2.615a2 2 0 0 1 -2 -2v-12a2 2 0 0 1 2 -2h8a2 2 0 0 1 2 2v8" /><path d="M14 19l2 2l4 -4" /><path d="M9 8h4" /><path d="M9 12h2" /></symbol><symbol id="tabler-chevron-down" viewBox="0 0 24 24" fill="none" stroke="currentColor" stroke-linecap="round" stroke-linejoin="round"><path stroke="none" d="M0 0h24v24H0z" fill="none"/><path d="M6 9l6 6l6 -6" /></symbol><symbol id="tabler-chevron-left" viewBox="0 0 24 24" fill="none" stroke="currentColor" stroke-linecap="round" stroke-linejoin="round"><path stroke="none" d="M0 0h24v24H0z" fill="none"/><path d="M15 6l-6 6l6 6" /></symbol><symbol id="tabler-chevron-right" viewBox="0 0 24 24" fill="none" stroke="currentColor" stroke-linecap="round" stroke-linejoin="round"><path stroke="none" d="M0 0h24v24H0z" fill="none"/><path d="M9 6l6 6l-6 6" /></symbol><symbol id="tabler-chevrons-right" viewBox="0 0 24 24" fill="none" stroke="currentColor" stroke-linecap="round" stroke-linejoin="round"><path stroke="none" d="M0 0h24v24H0z" fill="none"/><path d="M7 7l5 5l-5 5" /><path d="M13 7l5 5l-5 5" /></symbol><symbol id="tabler-circle-check" viewBox="0 0 24 24" fill="none" stroke="currentColor" stroke-linecap="round" stroke-linejoin="round"><path stroke="none" d="M0 0h24v24H0z" fill="none"/><path d="M12 12m-9 0a9 9 0 1 0 18 0a9 9 0 1 0 -18 0" /><path d="M9 12l2 2l4 -4" /></symbol><symbol id="tabler-clipboard" viewBox="0 0 24 24" fill="none" stroke="currentColor" stroke-linecap="round" stroke-linejoin="round"><path stroke="none" d="M0 0h24v24H0z" fill="none"/><path d="M9 5h-2a2 2 0 0 0 -2 2v12a2 2 0 0 0 2 2h10a2 2 0 0 0 2 -2v-12a2 2 0 0 0 -2 -2h-2" /><path d="M9 3m0 2a2 2 0 0 1 2 -2h2a2 2 0 0 1 2 2v0a2 2 0 0 1 -2 2h-2a2 2 0 0 1 -2 -2z" /></symbol><symbol id="tabler-clipboard-list" viewBox="0 0 24 24" fill="none" stroke="currentColor" stroke-linecap="round" stroke-linejoin="round"><path stroke="none" d="M0 0h24v24H0z" fill="none"/><path d="M9 5h-2a2 2 0 0 0 -2 2v12a2 2 0 0 0 2 2h10a2 2 0 0 0 2 -2v-12a2 2 0 0 0 -2 -2h-2" /><path d="M9 3m0 2a2 2 0 0 1 2 -2h2a2 2 0 0 1 2 2v0a2 2 0 0 1 -2 2h-2a2 2 0 0 1 -2 -2z" /><path d="M9 12l.01 0" /><path d="M13 12l2 0" /><path d="M9 16l.01 0" /><path d="M13 16l2 0" /></symbol><symbol id="tabler-clock-dollar" viewBox="0 0 24 24" fill="none" stroke="currentColor" stroke-linecap="round" stroke-linejoin="round"><path stroke="none" d="M0 0h24v24H0z" fill="none"/><path d="M20.866 10.45a9 9 0 1 0 -7.815 10.488" /><path d="M12 7v5l1.5 1.5" /><path d="M21 15h-2.5a1.5 1.5 0 0 0 0 3h1a1.5 1.5 0 0 1 0 3h-2.5" /><path d="M19 21v1m0 -8v1" /></symbol><symbol id="tabler-cloud-off" viewBox="0 0 24 24" fill="none" stroke="currentColor" stroke-linecap="round" stroke-linejoin="round"><path stroke="none" d="M0 0h24v24H0z" fill="none"/><path d="M9.58 5.548c.24 -.11 .492 -.207 .752 -.286c1.88 -.572 3.956 -.193 5.444 1c1.488 1.19 2.162 3.007 1.77 4.769h.99c1.913 0 3.464 1.56 3.464 3.486c0 .957 -.383 1.824 -1.003 2.454m-2.997 1.033h-11.343c-2.572 -.004 -4.657 -2.011 -4.657 -4.487c0 -2.475 2.085 -4.482 4.657 -4.482c.13 -.582 .37 -1.128 .7 -1.62" /><path d="M3 3l18 18" /></symbol><symbol id="tabler-copy" viewBox="0 0 24 24" fill="none" stroke="currentColor" stroke-linecap="round" stroke-linejoin="round"><path stroke="none" d="M0 0h24v24H0z" fill="none"/><path d="M7 7m0 2.667a2.667 2.667 0 0 1 2.667 -2.667h8.666a2.667 2.667 0 0 1 2.667 2.667v8.666a2.667 2.667 0 0 1 -2.667 2.667h-8.666a2.667 2.667 0 0 1 -2.667 -2.667z" /><path d="M4.012 16.737a2.005 2.005 0 0 1 -1.012 -1.737v-10c0 -1.1 .9 -2 2 -2h10c.75 0 1.158 .385 1.5 1" /></symbol><symbol id="tabler-database-export" viewBox="0 0 24 24" fill="none" stroke="currentColor" stroke-linecap="round" stroke-linejoin="round"><path stroke="none" d="M0 0h24v24H0z" fill="none"/><path d="M4 6c0 1.657 3.582 3 8 3s8 -1.343 8 -3s-3.582 -3 -8 -3s-8 1.343 -8 3" /><path d="M4 6v6c0 1.657 3.582 3 8 3c1.118 0 2.183 -.086 3.15 -.241" /><path d="M20 12v-6" /><path d="M4 12v6c0 1.657 3.582 3 8 3c.157 0 .312 -.002 .466 -.005" /><path d="M16 19h6" /><path d="M19 16l3 3l-3 3" /></symbol><symbol id="tabler-database-import" viewBox="0 0 24 24" fill="none" stroke="currentColor" stroke-linecap="round" stroke-linejoin="round"><path stroke="none" d="M0 0h24v24H0z" fill="none"/><path d="M4 6c0 1.657 3.582 3 8 3s8 -1.343 8 -3s-3.582 -3 -8 -3s-8 1.343 -8 3" /><path d="M4 6v6c0 1.657 3.582 3 8 3c.856 0 1.68 -.05 2.454 -.144m5.546 -2.856v-6" /><path d="M4 12v6c0 1.657 3.582 3 8 3c.171 0 .341 -.002 .51 -.006" /><path d="M19 22v-6" /><path d="M22 19l-3 -3l-3 3" /></symbol><symbol id="tabler-device-floppy" viewBox="0 0 24 24" fill="none" stroke="currentColor" stroke-linecap="round" stroke-linejoin="round"><path stroke="none" d="M0 0h24v24H0z" fill="none"/><path d="M6 4h10l4 4v10a2 2 0 0 1 -2 2h-12a2 2 0 0 1 -2 -2v-12a2 2 0 0 1 2 -2" /><path d="M12 14m-2 0a2 2 0 1 0 4 0a2 2 0 1 0 -4 0" /><path d="M14 4l0 4l-6 0l0 -4" /></symbol><symbol id="tabler-door-exit" viewBox="0 0 24 24" fill="none" stroke="currentColor" stroke-linecap="round" stroke-linejoin="round"><path stroke="none" d="M0 0h24v24H0z" fill="none"/><path d="M13 12v.01" /><path d="M3 21h18" /><path d="M5 21v-16a2 2 0 0 1 2 -2h7.5m2.5 10.5v7.5" /><path d="M14 7h7m-3 -3l3 3l-3 3" /></symbol><symbol id="tabler-download" viewBox="0 0 24 24" fill="none" stroke="currentColor" stroke-linecap="round" stroke-linejoin="round"><path stroke="none" d="M0 0h24v24H0z" fill="none"/><path d="M4 17v2a2 2 0 0 0 2 2h12a2 2 0 0 0 2 -2v-2" /><path d="M7 11l5 5l5 -5" /><path d="M12 4l0 12" /></symbol><symbol id="tabler-external-link" viewBox="0 0 24 24" fill="none" stroke="currentColor" stroke-linecap="round" stroke-linejoin="round"><path stroke="none" d="M0 0h24v24H0z" fill="none"/><path d="M12 6h-6a2 2 0 0 0 -2 2v10a2 2 0 0 0 2 2h10a2 2 0 0 0 2 -2v-6" /><path d="M11 13l9 -9" /><path d="M15 4h5v5" /></symbol><symbol id="tabler-file-check" viewBox="0 0 24 24" fill="none" stroke="currentColor" stroke-linecap="round" stroke-linejoin="round"><path stroke="none" d="M0 0h24v24H0z" fill="none"/><path d="M14 3v4a1 1 0 0 0 1 1h4" /><path d="M17 21h-10a2 2 0 0 1 -2 -2v-14a2 2 0 0 1 2 -2h7l5 5v11a2 2 0 0 1 -2 2z" /><path d="M9 15l2 2l4 -4" /></symbol><symbol id="tabler-file-download" viewBox="0 0 24 24" fill="none" stroke="currentColor" stroke-linecap="round" stroke-linejoin="round"><path stroke="none" d="M0 0h24v24H0z" fill="none"/><path d="M14 3v4a1 1 0 0 0 1 1h4" /><path d="M17 21h-10a2 2 0 0 1 -2 -2v-14a2 2 0 0 1 2 -2h7l5 5v11a2 2 0 0 1 -2 2z" /><path d="M12 17v-6" /><path d="M9.5 14.5l2.5 2.5l2.5 -2.5" /></symbol><symbol id="tabler-file-off" viewBox="0 0 24 24" fill="none" stroke="currentColor" stroke-linecap="round" stroke-linejoin="round"><path stroke="none" d="M0 0h24v24H0z" fill="none"/><path d="M3 3l18 18" /><path d="M7 3h7l5 5v7m0 4a2 2 0 0 1 -2 2h-10a2 2 0 0 1 -2 -2v-14" /></symbol><symbol id="tabler-file-upload" viewBox="0 0 24 24" fill="none" stroke="currentColor" stroke-linecap="round" stroke-linejoin="round"><path stroke="none" d="M0 0h24v24H0z" fill="none"/><path d="M14 3v4a1 1 0 0 0 1 1h4" /><path d="M17 21h-10a2 2 0 0 1 -2 -2v-14a2 2 0 0 1 2 -2h7l5 5v11a2 2 0 0 1 -2 2z" /><path d="M12 11v6" /><path d="M9.5 13.5l2.5 -2.5l2.5 2.5" /></symbol><symbol id="tabler-folder" viewBox="0 0 24 24" fill="none" stroke="currentColor" stroke-linecap="round" stroke-linejoin="round"><path stroke="none" d="M0 0h24v24H0z" fill="none"/><path d="M5 4h4l3 3h7a2 2 0 0 1 2 2v8a2 2 0 0 1 -2 2h-14a2 2 0 0 1 -2 -2v-11a2 2 0 0 1 2 -2" /></symbol><symbol id="tabler-folder-open" viewBox="0 0 24 24" fill="none" stroke="currentColor" stroke-linecap="round" stroke-linejoin="round"><path stroke="none" d="M0 0h24v24H0z" fill="none"/><path d="M5 19l2.757 -7.351a1 1 0 0 1 .936 -.649h12.307a1 1 0 0 1 .986 1.164l-.996 5.211a2 2 0 0 1 -1.964 1.625h-14.026a2 2 0 0 1 -2 -2v-11a2 2 0 0 1 2 -2h4l3 3h7a2 2 0 0 1 2 2v2" /></symbol><symbol id="tabler-git-commit" viewBox="0 0 24 24" fill="none" stroke="currentColor" stroke-linecap="round" stroke-linejoin="round"><path stroke="none" d="M0 0h24v24H0z" fill="none"/><path d="M12 12m-3 0a3 3 0 1 0 6 0a3 3 0 1 0 -6 0" /><path d="M12 3l0 6" /><path d="M12 15l0 6" /></symbol><symbol id="tabler-grip-vertical" viewBox="0 0 24 24" fill="none" stroke="currentColor" stroke-linecap="round" stroke-linejoin="round"><path stroke="none" d="M0 0h24v24H0z" fill="none"/><path d="M9 5m-1 0a1 1 0 1 0 2 0a1 1 0 1 0 -2 0" /><path d="M9 12m-1 0a1 1 0 1 0 2 0a1 1 0 1 0 -2 0" /><path d="M9 19m-1 0a1 1 0 1 0 2 0a1 1 0 1 0 -2 0" /><path d="M15 5m-1 0a1 1 0 1 0 2 0a1 1 0 1 0 -2 0" /><path d="M15 12m-1 0a1 1 0 1 0 2 0a1 1 0 1 0 -2 0" /><path d="M15 19m-1 0a1 1 0 1 0 2 0a1 1 0 1 0 -2 0" /></symbol><symbol id="tabler-headset" viewBox="0 0 24 24" fill="none" stroke="currentColor" stroke-linecap="round" stroke-linejoin="round"><path stroke="none" d="M0 0h24v24H0z" fill="none"/><path d="M4 14v-3a8 8 0 1 1 16 0v3" /><path d="M18 19c0 1.657 -2.686 3 -6 3" /><path d="M4 14a2 2 0 0 1 2 -2h1a2 2 0 0 1 2 2v3a2 2 0 0 1 -2 2h-1a2 2 0 0 1 -2 -2v-3z" /><path d="M15 14a2 2 0 0 1 2 -2h1a2 2 0 0 1 2 2v3a2 2 0 0 1 -2 2h-1a2 2 0 0 1 -2 -2v-3z" /></symbol><symbol id="tabler-help-circle" viewBox="0 0 24 24" fill="none" stroke="currentColor" stroke-linecap="round" stroke-linejoin="round"><path stroke="none" d="M0 0h24v24H0z" fill="none"/><path d="M3 12a9 9 0 1 0 18 0a9 9 0 0 0 -18 0" /><path d="M12 16v.01" /><path d="M12 13a2 2 0 0 0 .914 -3.782a1.98 1.98 0 0 0 -2.414 .483" /></symbol><symbol id="tabler-home" viewBox="0 0 24 24" fill="none" stroke="currentColor" stroke-linecap="round" stroke-linejoin="round"><path stroke="none" d="M0 0h24v24H0z" fill="none"/><path d="M5 12l-2 0l9 -9l9 9l-2 0" /><path d="M5 12v7a2 2 0 0 0 2 2h10a2 2 0 0 0 2 -2v-7" /><path d="M9 21v-6a2 2 0 0 1 2 -2h2a2 2 0 0 1 2 2v6" /></symbol><symbol id="tabler-id-badge" viewBox="0 0 24 24" fill="none" stroke="currentColor" stroke-linecap="round" stroke-linejoin="round"><path stroke="none" d="M0 0h24v24H0z" fill="none"/><path d="M5 3m0 3a3 3 0 0 1 3 -3h8a3 3 0 0 1 3 3v12a3 3 0 0 1 -3 3h-8a3 3 0 0 1 -3 -3z" /><path d="M12 13m-2 0a2 2 0 1 0 4 0a2 2 0 1 0 -4 0" /><path d="M10 6h4" /><path d="M9 18h6" /></symbol><symbol id="tabler-info-circle" viewBox="0 0 24 24" fill="none" stroke="currentColor" stroke-linecap="round" stroke-linejoin="round"><path stroke="none" d="M0 0h24v24H0z" fill="none"/><path d="M3 12a9 9 0 1 0 18 0a9 9 0 0 0 -18 0" /><path d="M12 9h.01" /><path d="M11 12h1v4h1" /></symbol><symbol id="tabler-keyboard" viewBox="0 0 24 24" fill="none" stroke="currentColor" stroke-linecap="round" stroke-linejoin="round"><path stroke="none" d="M0 0h24v24H0z" fill="none"/><path d="M2 6m0 2a2 2 0 0 1 2 -2h16a2 2 0 0 1 2 2v8a2 2 0 0 1 -2 2h-16a2 2 0 0 1 -2 -2z" /><path d="M6 10l0 .01" /><path d="M10 10l0 .01" /><path d="M14 10l0 .01" /><path d="M18 10l0 .01" /><path d="M6 14l0 .01" /><path d="M18 14l0 .01" /><path d="M10 14l4 .01" /></symbol><symbol id="tabler-layout" viewBox="0 0 24 24" fill="none" stroke="currentColor" stroke-linecap="round" stroke-linejoin="round"><path stroke="none" d="M0 0h24v24H0z" fill="none"/><path d="M4 4m0 2a2 2 0 0 1 2 -2h2a2 2 0 0 1 2 2v1a2 2 0 0 1 -2 2h-2a2 2 0 0 1 -2 -2z" /><path d="M4 13m0 2a2 2 0 0 1 2 -2h2a2 2 0 0 1 2 2v3a2 2 0 0 1 -2 2h-2a2 2 0 0 1 -2 -2z" /><path d="M14 4m0 2a2 2 0 0 1 2 -2h2a2 2 0 0 1 2 2v12a2 2 0 0 1 -2 2h-2a2 2 0 0 1 -2 -2z" /></symbol><symbol id="tabler-layout-columns" viewBox="0 0 24 24" fill="none" stroke="currentColor" stroke-linecap="round" stroke-linejoin="round"><path stroke="none" d="M0 0h24v24H0z" fill="none"/><path d="M4 4m0 2a2 2 0 0 1 2 -2h12a2 2 0 0 1 2 2v12a2 2 0 0 1 -2 2h-12a2 2 0 0 1 -2 -2z" /><path d="M12 4l0 16" /></symbol><symbol id="tabler-layout-grid" viewBox="0 0 24 24" fill="none" stroke="currentColor" stroke-linecap="round" stroke-linejoin="round"><path stroke="none" d="M0 0h24v24H0z" fill="none"/><path d="M4 4m0 1a1 1 0 0 1 1 -1h4a1 1 0 0 1 1 1v4a1 1 0 0 1 -1 1h-4a1 1 0 0 1 -1 -1z" /><path d="M14 4m0 1a1 1 0 0 1 1 -1h4a1 1 0 0 1 1 1v4a1 1 0 0 1 -1 1h-4a1 1 0 0 1 -1 -1z" /><path d="M4 14m0 1a1 1 0 0 1 1 -1h4a1 1 0 0 1 1 1v4a1 1 0 0 1 -1 1h-4a1 1 0 0 1 -1 -1z" /><path d="M14 14m0 1a1 1 0 0 1 1 -1h4a1 1 0 0 1 1 1v4a1 1 0 0 1 -1 1h-4a1 1 0 0 1 -1 -1z" /></symbol><symbol id="tabler-link" viewBox="0 0 24 24" fill="none" stroke="currentColor" stroke-linecap="round" stroke-linejoin="round"><path stroke="none" d="M0 0h24v24H0z" fill="none"/><path d="M9 15l6 -6" /><path d="M11 6l.463 -.536a5 5 0 0 1 7.071 7.072l-.534 .464" /><path d="M13 18l-.397 .534a5.068 5.068 0 0 1 -7.127 0a4.972 4.972 0 0 1 0 -7.071l.524 -.463" /></symbol><symbol id="tabler-list-check" viewBox="0 0 24 24" fill="none" stroke="currentColor" stroke-linecap="round" stroke-linejoin="round"><path stroke="none" d="M0 0h24v24H0z" fill="none"/><path d="M3.5 5.5l1.5 1.5l2.5 -2.5" /><path d="M3.5 11.5l1.5 1.5l2.5 -2.5" /><path d="M3.5 17.5l1.5 1.5l2.5 -2.5" /><path d="M11 6l9 0" /><path d="M11 12l9 0" /><path d="M11 18l9 0" /></symbol><symbol id="tabler-loader" viewBox="0 0 24 24" fill="none" stroke="currentColor" stroke-linecap="round" stroke-linejoin="round"><path stroke="none" d="M0 0h24v24H0z" fill="none"/><path d="M12 6l0 -3" /><path d="M16.25 7.75l2.15 -2.15" /><path d="M18 12l3 0" /><path d="M16.25 16.25l2.15 2.15" /><path d="M12 18l0 3" /><path d="M7.75 16.25l-2.15 2.15" /><path d="M6 12l-3 0" /><path d="M7.75 7.75l-2.15 -2.15" /></symbol><symbol id="tabler-loader-2" viewBox="0 0 24 24" fill="none" stroke="currentColor" stroke-linecap="round" stroke-linejoin="round"><path stroke="none" d="M0 0h24v24H0z" fill="none"/><path d="M12 3a9 9 0 1 0 9 9" /></symbol><symbol id="tabler-lock" viewBox="0 0 24 24" fill="none" stroke="currentColor" stroke-linecap="round" stroke-linejoin="round"><path stroke="none" d="M0 0h24v24H0z" fill="none"/><path d="M5 13a2 2 0 0 1 2 -2h10a2 2 0 0 1 2 2v6a2 2 0 0 1 -2 2h-10a2 2 0 0 1 -2 -2v-6z" /><path d="M11 16a1 1 0 1 0 2 0a1 1 0 0 0 -2 0" /><path d="M8 11v-4a4 4 0 1 1 8 0v4" /></symbol><symbol id="tabler-login" viewBox="0 0 24 24" fill="none" stroke="currentColor" stroke-linecap="round" stroke-linejoin="round"><path stroke="none" d="M0 0h24v24H0z" fill="none"/><path d="M15 8v-2a2 2 0 0 0 -2 -2h-7a2 2 0 0 0 -2 2v12a2 2 0 0 0 2 2h7a2 2 0 0 0 2 -2v-2" /><path d="M21 12h-13l3 -3" /><path d="M11 15l-3 -3" /></symbol><symbol id="tabler-logout" viewBox="0 0 24 24" fill="none" stroke="currentColor" stroke-linecap="round" stroke-linejoin="round"><path stroke="none" d="M0 0h24v24H0z" fill="none"/><path d="M14 8v-2a2 2 0 0 0 -2 -2h-7a2 2 0 0 0 -2 2v12a2 2 0 0 0 2 2h7a2 2 0 0 0 2 -2v-2" /><path d="M9 12h12l-3 -3" /><path d="M18 15l3 -3" /></symbol><symbol id="tabler-mail" viewBox="0 0 24 24" fill="none" stroke="currentColor" stroke-linecap="round" stroke-linejoin="round"><path stroke="none" d="M0 0h24v24H0z" fill="none"/><path d="M3 7a2 2 0 0 1 2 -2h14a2 2 0 0 1 2 2v10a2 2 0 0 1 -2 2h-14a2 2 0 0 1 -2 -2v-10z" /><path d="M3 7l9 6l9 -6" /></symbol><symbol id="tabler-mail-off" viewBox="0 0 24 24" fill="none" stroke="currentColor" stroke-linecap="round" stroke-linejoin="round"><path stroke="none" d="M0 0h24v24H0z" fill="none"/><path d="M9 5h10a2 2 0 0 1 2 2v10m-2 2h-14a2 2 0 0 1 -2 -2v-10a2 2 0 0 1 2 -2" /><path d="M3 7l9 6l.565 -.377m2.435 -1.623l6 -4" /><path d="M3 3l18 18" /></symbol><symbol id="tabler-message-circle" viewBox="0 0 24 24" fill="none" stroke="currentColor" stroke-linecap="round" stroke-linejoin="round"><path stroke="none" d="M0 0h24v24H0z" fill="none"/><path d="M3 20l1.3 -3.9c-2.324 -3.437 -1.426 -7.872 2.1 -10.374c3.526 -2.501 8.59 -2.296 11.845 .48c3.255 2.777 3.695 7.266 1.029 10.501c-2.666 3.235 -7.615 4.215 -11.574 2.293l-4.7 1" /></symbol><symbol id="tabler-minus" viewBox="0 0 24 24" fill="none" stroke="currentColor" stroke-linecap="round" stroke-linejoin="round"><path stroke="none" d="M0 0h24v24H0z" fill="none"/><path d="M5 12l14 0" /></symbol><symbol id="tabler-mood-empty" viewBox="0 0 24 24" fill="none" stroke="currentColor" stroke-linecap="round" stroke-linejoin="round"><path stroke="none" d="M0 0h24v24H0z" fill="none"/><path d="M12 12m-9 0a9 9 0 1 0 18 0a9 9 0 1 0 -18 0" /><path d="M9 10l.01 0" /><path d="M15 10l.01 0" /><path d="M9 15l6 0" /></symbol><symbol id="tabler-moon" viewBox="0 0 24 24" fill="none" stroke="currentColor" stroke-linecap="round" stroke-linejoin="round"><path stroke="none" d="M0 0h24v24H0z" fill="none"/><path d="M12 3c.132 0 .263 0 .393 0a7.5 7.5 0 0 0 7.92 12.446a9 9 0 1 1 -8.313 -12.454z" /></symbol><symbol id="tabler-mouse" viewBox="0 0 24 24" fill="none" stroke="currentColor" stroke-linecap="round" stroke-linejoin="round"><path stroke="none" d="M0 0h24v24H0z" fill="none"/><path d="M6 3m0 4a4 4 0 0 1 4 -4h4a4 4 0 0 1 4 4v10a4 4 0 0 1 -4 4h-4a4 4 0 0 1 -4 -4z" /><path d="M12 7l0 4" /></symbol><symbol id="tabler-notes" viewBox="0 0 24 24" fill="none" stroke="currentColor" stroke-linecap="round" stroke-linejoin="round"><path stroke="none" d="M0 0h24v24H0z" fill="none"/><path d="M5 3m0 2a2 2 0 0 1 2 -2h10a2 2 0 0 1 2 2v14a2 2 0 0 1 -2 2h-10a2 2 0 0 1 -2 -2z" /><path d="M9 7l6 0" /><path d="M9 11l6 0" /><path d="M9 15l4 0" /></symbol><symbol id="tabler-package" viewBox="0 0 24 24" fill="none" stroke="currentColor" stroke-linecap="round" stroke-linejoin="round"><path stroke="none" d="M0 0h24v24H0z" fill="none"/><path d="M12 3l8 4.5l0 9l-8 4.5l-8 -4.5l0 -9l8 -4.5" /><path d="M12 12l8 -4.5" /><path d="M12 12l0 9" /><path d="M12 12l-8 -4.5" /><path d="M16 5.25l-8 4.5" /></symbol><symbol id="tabler-pencil" viewBox="0 0 24 24" fill="none" stroke="currentColor" stroke-linecap="round" stroke-linejoin="round"><path stroke="none" d="M0 0h24v24H0z" fill="none"/><path d="M4 20h4l10.5 -10.5a2.828 2.828 0 1 0 -4 -4l-10.5 10.5v4" /><path d="M13.5 6.5l4 4" /></symbol><symbol id="tabler-player-play" viewBox="0 0 24 24" fill="none" stroke="currentColor" stroke-linecap="round" stroke-linejoin="round"><path stroke="none" d="M0 0h24v24H0z" fill="none"/><path d="M7 4v16l13 -8z" /></symbol><symbol id="tabler-player-play-filled" viewBox="0 0 24 24" fill="none" stroke="currentColor" stroke-linecap="round" stroke-linejoin="round"><path stroke="none" d="M0 0h24v24H0z" fill="none"/><path d="M6 4v16a1 1 0 0 0 1.524 .852l13 -8a1 1 0 0 0 0 -1.704l-13 -8a1 1 0 0 0 -1.524 .852z" stroke-width="0" fill="currentColor" /></symbol><symbol id="tabler-plus" viewBox="0 0 24 24" fill="none" stroke="currentColor" stroke-linecap="round" stroke-linejoin="round"><path stroke="none" d="M0 0h24v24H0z" fill="none"/><path d="M12 5l0 14" /><path d="M5 12l14 0" /></symbol><symbol id="tabler-refresh" viewBox="0 0 24 24" fill="none" stroke="currentColor" stroke-linecap="round" stroke-linejoin="round"><path stroke="none" d="M0 0h24v24H0z" fill="none"/><path d="M20 11a8.1 8.1 0 0 0 -15.5 -2m-.5 -4v4h4" /><path d="M4 13a8.1 8.1 0 0 0 15.5 2m.5 4v-4h-4" /></symbol><symbol id="tabler-restore" viewBox="0 0 24 24" fill="none" stroke="currentColor" stroke-linecap="round" stroke-linejoin="round"><path stroke="none" d="M0 0h24v24H0z" fill="none"/><path d="M3.06 13a9 9 0 1 0 .49 -4.087" /><path d="M3 4.001v5h5" /><path d="M12 12m-1 0a1 1 0 1 0 2 0a1 1 0 1 0 -2 0" /></symbol><symbol id="tabler-rocket" viewBox="0 0 24 24" fill="none" stroke="currentColor" stroke-linecap="round" stroke-linejoin="round"><path stroke="none" d="M0 0h24v24H0z" fill="none"/><path d="M4 13a8 8 0 0 1 7 7a6 6 0 0 0 3 -5a9 9 0 0 0 6 -8a3 3 0 0 0 -3 -3a9 9 0 0 0 -8 6a6 6 0 0 0 -5 3" /><path d="M7 14a6 6 0 0 0 -3 6a6 6 0 0 0 6 -3" /><path d="M15 9m-1 0a1 1 0 1 0 2 0a1 1 0 1 0 -2 0" /></symbol><symbol id="tabler-rosette-discount-check" viewBox="0 0 24 24" fill="none" stroke="currentColor" stroke-linecap="round" stroke-linejoin="round"><path stroke="none" d="M0 0h24v24H0z" fill="none"/><path d="M5.029 10.823a3.43 3.43 0 0 1 0 2.354a3.43 3.43 0 0 0 2.353 5.353l.37 .019a3.43 3.43 0 0 1 1.665 .662l.298 .226a3.43 3.43 0 0 0 4.17 0l.298 -.226a3.43 3.43 0 0 1 1.664 -.662l.37 -.019a3.43 3.43 0 0 0 2.354 -5.353a3.43 3.43 0 0 1 0 -2.354a3.43 3.43 0 0 0 -2.354 -5.353l-.37 -.019a3.43 3.43 0 0 1 -1.664 -.662l-.298 -.226a3.43 3.43 0 0 0 -4.17 0l-.298 .226a3.43 3.43 0 0 1 -1.665 .662l-.37 .019a3.43 3.43 0 0 0 -2.353 5.353z"/><path d="M9 12l2 2l4 -4"/></symbol><symbol id="tabler-rotate" viewBox="0 0 24 24" fill="none" stroke="currentColor" stroke-linecap="round" stroke-linejoin="round"><path stroke="none" d="M0 0h24v24H0z" fill="none"/><path d="M19.95 11a8 8 0 1 0 -.5 4m.5 5v-5h-5" /></symbol><symbol id="tabler-run" viewBox="0 0 24 24" fill="none" stroke="currentColor" stroke-linecap="round" stroke-linejoin="round"><path stroke="none" d="M0 0h24v24H0z" fill="none"/><path d="M13 4m-1 0a1 1 0 1 0 2 0a1 1 0 1 0 -2 0" /><path d="M4 17l5 1l.75 -1.5" /><path d="M15 21l0 -4l-4 -3l1 -6" /><path d="M7 12l0 -3l5 -1l3 3l3 1" /></symbol><symbol id="tabler-search" viewBox="0 0 24 24" fill="none" stroke="currentColor" stroke-linecap="round" stroke-linejoin="round"><path stroke="none" d="M0 0h24v24H0z" fill="none"/><path d="M10 10m-7 0a7 7 0 1 0 14 0a7 7 0 1 0 -14 0" /><path d="M21 21l-6 -6" /></symbol><symbol id="tabler-selector" viewBox="0 0 24 24" fill="none" stroke="currentColor" stroke-linecap="round" stroke-linejoin="round"><path stroke="none" d="M0 0h24v24H0z" fill="none"/><path d="M8 9l4 -4l4 4" /><path d="M16 15l-4 4l-4 -4" /></symbol><symbol id="tabler-send" viewBox="0 0 24 24" fill="none" stroke="currentColor" stroke-linecap="round" stroke-linejoin="round"><path stroke="none" d="M0 0h24v24H0z" fill="none"/><path d="M10 14l11 -11" /><path d="M21 3l-6.5 18a.55 .55 0 0 1 -1 0l-3.5 -7l-7 -3.5a.55 .55 0 0 1 0 -1l18 -6.5" /></symbol><symbol id="tabler-settings" viewBox="0 0 24 24" fill="none" stroke="currentColor" stroke-linecap="round" stroke-linejoin="round"><path stroke="none" d="M0 0h24v24H0z" fill="none"/><path d="M10.325 4.317c.426 -1.756 2.924 -1.756 3.35 0a1.724 1.724 0 0 0 2.573 1.066c1.543 -.94 3.31 .826 2.37 2.37a1.724 1.724 0 0 0 1.065 2.572c1.756 .426 1.756 2.924 0 3.35a1.724 1.724 0 0 0 -1.066 2.573c.94 1.543 -.826 3.31 -2.37 2.37a1.724 1.724 0 0 0 -2.572 1.065c-.426 1.756 -2.924 1.756 -3.35 0a1.724 1.724 0 0 0 -2.573 -1.066c-1.543 .94 -3.31 -.826 -2.37 -2.37a1.724 1.724 0 0 0 -1.065 -2.572c-1.756 -.426 -1.756 -2.924 0 -3.35a1.724 1.724 0 0 0 1.066 -2.573c-.94 -1.543 .826 -3.31 2.37 -2.37c1 .608 2.296 .07 2.572 -1.065z" /><path d="M9 12a3 3 0 1 0 6 0a3 3 0 0 0 -6 0" /></symbol><symbol id="tabler-share" viewBox="0 0 24 24" fill="none" stroke="currentColor" stroke-linecap="round" stroke-linejoin="round"><path stroke="none" d="M0 0h24v24H0z" fill="none"/><path d="M6 12m-3 0a3 3 0 1 0 6 0a3 3 0 1 0 -6 0" /><path d="M18 6m-3 0a3 3 0 1 0 6 0a3 3 0 1 0 -6 0" /><path d="M18 18m-3 0a3 3 0 1 0 6 0a3 3 0 1 0 -6 0" /><path d="M8.7 10.7l6.6 -3.4" /><path d="M8.7 13.3l6.6 3.4" /></symbol><symbol id="tabler-share-off" viewBox="0 0 24 24" fill="none" stroke="currentColor" stroke-linecap="round" stroke-linejoin="round"><path stroke="none" d="M0 0h24v24H0z" fill="none"/><path d="M6 12m-3 0a3 3 0 1 0 6 0a3 3 0 1 0 -6 0" /><path d="M18 6m-3 0a3 3 0 1 0 6 0a3 3 0 1 0 -6 0" /><path d="M15.861 15.896a3 3 0 0 0 4.265 4.22m.578 -3.417a3.012 3.012 0 0 0 -1.507 -1.45" /><path d="M8.7 10.7l1.336 -.688m2.624 -1.352l2.64 -1.36" /><path d="M8.7 13.3l6.6 3.4" /><path d="M3 3l18 18" /></symbol><symbol id="tabler-sort-ascending" viewBox="0 0 24 24" fill="none" stroke="currentColor" stroke-linecap="round" stroke-linejoin="round"><path stroke="none" d="M0 0h24v24H0z" fill="none"/><path d="M4 6l7 0" /><path d="M4 12l7 0" /><path d="M4 18l9 0" /><path d="M15 9l3 -3l3 3" /><path d="M18 6l0 12" /></symbol><symbol id="tabler-sort-descending" viewBox="0 0 24 24" fill="none" stroke="currentColor" stroke-linecap="round" stroke-linejoin="round"><path stroke="none" d="M0 0h24v24H0z" fill="none"/><path d="M4 6l9 0" /><path d="M4 12l7 0" /><path d="M4 18l7 0" /><path d="M15 15l3 3l3 -3" /><path d="M18 6l0 12" /></symbol><symbol id="tabler-sparkles" viewBox="0 0 24 24" fill="none" stroke="currentColor" stroke-linecap="round" stroke-linejoin="round"><path stroke="none" d="M0 0h24v24H0z" fill="none"/><path d="M16 18a2 2 0 0 1 2 2a2 2 0 0 1 2 -2a2 2 0 0 1 -2 -2a2 2 0 0 1 -2 2zm0 -12a2 2 0 0 1 2 2a2 2 0 0 1 2 -2a2 2 0 0 1 -2 -2a2 2 0 0 1 -2 2zm-7 12a6 6 0 0 1 6 -6a6 6 0 0 1 -6 -6a6 6 0 0 1 -6 6a6 6 0 0 1 6 6z" /></symbol><symbol id="tabler-star" viewBox="0 0 24 24" fill="none" stroke="currentColor" stroke-linecap="round" stroke-linejoin="round"><path stroke="none" d="M0 0h24v24H0z" fill="none"/><path d="M12 17.75l-6.172 3.245l1.179 -6.873l-5 -4.867l6.9 -1l3.086 -6.253l3.086 6.253l6.9 1l-5 4.867l1.179 6.873z" /></symbol><symbol id="tabler-star-filled" viewBox="0 0 24 24" fill="none" stroke="currentColor" stroke-linecap="round" stroke-linejoin="round"><path stroke="none" d="M0 0h24v24H0z" fill="none"/><path d="M8.243 7.34l-6.38 .925l-.113 .023a1 1 0 0 0 -.44 1.684l4.622 4.499l-1.09 6.355l-.013 .11a1 1 0 0 0 1.464 .944l5.706 -3l5.693 3l.1 .046a1 1 0 0 0 1.352 -1.1l-1.091 -6.355l4.624 -4.5l.078 -.085a1 1 0 0 0 -.633 -1.62l-6.38 -.926l-2.852 -5.78a1 1 0 0 0 -1.794 0l-2.853 5.78z" stroke-width="0" fill="currentColor" /></symbol><symbol id="tabler-sun" viewBox="0 0 24 24" fill="none" stroke="currentColor" stroke-linecap="round" stroke-linejoin="round"><path stroke="none" d="M0 0h24v24H0z" fill="none"/><path d="M12 12m-4 0a4 4 0 1 0 8 0a4 4 0 1 0 -8 0" /><path d="M3 12h1m8 -9v1m8 8h1m-9 8v1m-6.4 -15.4l.7 .7m12.1 -.7l-.7 .7m0 11.4l.7 .7m-12.1 -.7l-.7 .7" /></symbol><symbol id="tabler-tag" viewBox="0 0 24 24" fill="none" stroke="currentColor" stroke-linecap="round" stroke-linejoin="round"><path stroke="none" d="M0 0h24v24H0z" fill="none"/><path d="M7.5 7.5m-1 0a1 1 0 1 0 2 0a1 1 0 1 0 -2 0" /><path d="M3 6v5.172a2 2 0 0 0 .586 1.414l7.71 7.71a2.41 2.41 0 0 0 3.408 0l5.592 -5.592a2.41 2.41 0 0 0 0 -3.408l-7.71 -7.71a2 2 0 0 0 -1.414 -.586h-5.172a3 3 0 0 0 -3 3z" /></symbol><symbol id="tabler-test-pipe" viewBox="0 0 24 24" fill="none" stroke="currentColor" stroke-linecap="round" stroke-linejoin="round"><path stroke="none" d="M0 0h24v24H0z" fill="none"/><path d="M20 8.04l-12.122 12.124a2.857 2.857 0 1 1 -4.041 -4.04l12.122 -12.124" /><path d="M7 13h8" /><path d="M19 15l1.5 1.6a2 2 0 1 1 -3 0l1.5 -1.6z" /><path d="M15 3l6 6" /></symbol><symbol id="tabler-tool" viewBox="0 0 24 24" fill="none" stroke="currentColor" stroke-linecap="round" stroke-linejoin="round"><path stroke="none" d="M0 0h24v24H0z" fill="none"/><path d="M7 10h3v-3l-3.5 -3.5a6 6 0 0 1 8 8l6 6a2 2 0 0 1 -3 3l-6 -6a6 6 0 0 1 -8 -8l3.5 3.5" /></symbol><symbol id="tabler-trash" viewBox="0 0 24 24" fill="none" stroke="currentColor" stroke-linecap="round" stroke-linejoin="round"><path stroke="none" d="M0 0h24v24H0z" fill="none"/><path d="M4 7l16 0" /><path d="M10 11l0 6" /><path d="M14 11l0 6" /><path d="M5 7l1 12a2 2 0 0 0 2 2h8a2 2 0 0 0 2 -2l1 -12" /><path d="M9 7v-3a1 1 0 0 1 1 -1h4a1 1 0 0 1 1 1v3" /></symbol><symbol id="tabler-upload" viewBox="0 0 24 24" fill="none" stroke="currentColor" stroke-linecap="round" stroke-linejoin="round"><path stroke="none" d="M0 0h24v24H0z" fill="none"/><path d="M4 17v2a2 2 0 0 0 2 2h12a2 2 0 0 0 2 -2v-2" /><path d="M7 9l5 -5l5 5" /><path d="M12 4l0 12" /></symbol><symbol id="tabler-user" viewBox="0 0 24 24" fill="none" stroke="currentColor" stroke-linecap="round" stroke-linejoin="round"><path stroke="none" d="M0 0h24v24H0z" fill="none"/><path d="M8 7a4 4 0 1 0 8 0a4 4 0 0 0 -8 0" /><path d="M6 21v-2a4 4 0 0 1 4 -4h4a4 4 0 0 1 4 4v2" /></symbol><symbol id="tabler-user-check" viewBox="0 0 24 24" fill="none" stroke="currentColor" stroke-linecap="round" stroke-linejoin="round"><path stroke="none" d="M0 0h24v24H0z" fill="none"/><path d="M8 7a4 4 0 1 0 8 0a4 4 0 0 0 -8 0" /><path d="M6 21v-2a4 4 0 0 1 4 -4h4" /><path d="M15 19l2 2l4 -4" /></symbol><symbol id="tabler-user-circle" viewBox="0 0 24 24" fill="none" stroke="currentColor" stroke-linecap="round" stroke-linejoin="round"><path stroke="none" d="M0 0h24v24H0z" fill="none"/><path d="M12 12m-9 0a9 9 0 1 0 18 0a9 9 0 1 0 -18 0" /><path d="M12 10m-3 0a3 3 0 1 0 6 0a3 3 0 1 0 -6 0" /><path d="M6.168 18.849a4 4 0 0 1 3.832 -2.849h4a4 4 0 0 1 3.834 2.855" /></symbol><symbol id="tabler-user-minus" viewBox="0 0 24 24" fill="none" stroke="currentColor" stroke-linecap="round" stroke-linejoin="round"><path stroke="none" d="M0 0h24v24H0z" fill="none"/><path d="M8 7a4 4 0 1 0 8 0a4 4 0 0 0 -8 0" /><path d="M6 21v-2a4 4 0 0 1 4 -4h4c.348 0 .686 .045 1.009 .128" /><path d="M16 19h6" /></symbol><symbol id="tabler-user-plus" viewBox="0 0 24 24" fill="none" stroke="currentColor" stroke-linecap="round" stroke-linejoin="round"><path stroke="none" d="M0 0h24v24H0z" fill="none"/><path d="M8 7a4 4 0 1 0 8 0a4 4 0 0 0 -8 0" /><path d="M16 19h6" /><path d="M19 16v6" /><path d="M6 21v-2a4 4 0 0 1 4 -4h4" /></symbol><symbol id="tabler-user-up" viewBox="0 0 24 24" fill="none" stroke="currentColor" stroke-linecap="round" stroke-linejoin="round"><path stroke="none" d="M0 0h24v24H0z" fill="none"/><path d="M8 7a4 4 0 1 0 8 0a4 4 0 0 0 -8 0" /><path d="M6 21v-2a4 4 0 0 1 4 -4h4" /><path d="M19 22v-6" /><path d="M22 19l-3 -3l-3 3" /></symbol><symbol id="tabler-users" viewBox="0 0 24 24" fill="none" stroke="currentColor" stroke-linecap="round" stroke-linejoin="round"><path stroke="none" d="M0 0h24v24H0z" fill="none"/><path d="M9 7m-4 0a4 4 0 1 0 8 0a4 4 0 1 0 -8 0" /><path d="M3 21v-2a4 4 0 0 1 4 -4h4a4 4 0 0 1 4 4v2" /><path d="M16 3.13a4 4 0 0 1 0 7.75" /><path d="M21 21v-2a4 4 0 0 0 -3 -3.85" /></symbol><symbol id="tabler-users-group" viewBox="0 0 24 24" fill="none" stroke="currentColor" stroke-linecap="round" stroke-linejoin="round"><path stroke="none" d="M0 0h24v24H0z" fill="none"/><path d="M10 13a2 2 0 1 0 4 0a2 2 0 0 0 -4 0" /><path d="M8 21v-1a2 2 0 0 1 2 -2h4a2 2 0 0 1 2 2v1" /><path d="M15 5a2 2 0 1 0 4 0a2 2 0 0 0 -4 0" /><path d="M17 10h2a2 2 0 0 1 2 2v1" /><path d="M5 5a2 2 0 1 0 4 0a2 2 0 0 0 -4 0" /><path d="M3 13v-1a2 2 0 0 1 2 -2h2" /></symbol><symbol id="tabler-world-upload" viewBox="0 0 24 24" fill="none" stroke="currentColor" stroke-linecap="round" stroke-linejoin="round"><path stroke="none" d="M0 0h24v24H0z" fill="none"/><path d="M21 12a9 9 0 1 0 -9 9" /><path d="M3.6 9h16.8" /><path d="M3.6 15h8.4" /><path d="M11.578 3a17 17 0 0 0 0 18" /><path d="M12.5 3c1.719 2.755 2.5 5.876 2.5 9" /><path d="M18 21v-7m3 3l-3 -3l-3 3" /></symbol><symbol id="tabler-x" viewBox="0 0 24 24" fill="none" stroke="currentColor" stroke-linecap="round" stroke-linejoin="round"><path stroke="none" d="M0 0h24v24H0z" fill="none"/><path d="M18 6l-12 12" /><path d="M6 6l12 12" /></symbol></defs></svg>